<?xml version="1.0" standalone="no"?>
<!DOCTYPE svg PUBLIC "-//W3C//DTD SVG 20010904//EN"
 "http://www.w3.org/TR/2001/REC-SVG-20010904/DTD/svg10.dtd">
<svg version="1.0" xmlns="http://www.w3.org/2000/svg"
 width="256.000000pt" height="256.000000pt" viewBox="0 0 256.000000 256.000000"
 preserveAspectRatio="xMidYMid meet">
<metadata>
Created by potrace 1.14, written by Peter Selinger 2001-2017
</metadata>
<g transform="translate(0.000000,256.000000) scale(0.100000,-0.100000)"
fill="#000000" stroke="none">
<path d="M0 1280 l0 -1280 40 0 c33 0 40 3 40 20 0 13 -7 20 -20 20 -17 0 -20
7 -20 40 l0 40 300 0 c293 0 300 0 300 -20 0 -20 7 -20 640 -20 633 0 640 0
640 20 0 20 7 20 300 20 l300 0 0 -40 c0 -33 -3 -40 -20 -40 -13 0 -20 -7 -20
-20 0 -17 7 -20 40 -20 l40 0 0 1280 0 1280 -1280 0 -1280 0 0 -1280z m1360
1180 c0 -18 -7 -20 -80 -20 -73 0 -80 -2 -80 -20 0 -13 -7 -20 -20 -20 -13 0
-20 7 -20 20 0 13 7 20 20 20 13 0 20 7 20 20 0 18 7 20 80 20 73 0 80 -2 80
-20z m-240 -80 c0 -13 -7 -20 -20 -20 -13 0 -20 -7 -20 -20 0 -13 -7 -20 -20
-20 -13 0 -20 -7 -20 -20 0 -13 -7 -20 -20 -20 -13 0 -20 -7 -20 -20 0 -13 -7
-20 -20 -20 -13 0 -20 -7 -20 -20 0 -13 -7 -20 -20 -20 -13 0 -20 -7 -20 -20
0 -13 -7 -20 -20 -20 -13 0 -20 -7 -20 -20 0 -13 -7 -20 -20 -20 -13 0 -20 7
-20 20 0 13 7 20 20 20 13 0 20 7 20 20 0 13 7 20 20 20 13 0 20 7 20 20 0 13
7 20 20 20 13 0 20 7 20 20 0 13 7 20 20 20 13 0 20 7 20 20 0 13 7 20 20 20
13 0 20 7 20 20 0 13 7 20 20 20 13 0 20 7 20 20 0 13 7 20 20 20 13 0 20 -7
20 -20z m320 0 c0 -13 -7 -20 -20 -20 -13 0 -20 7 -20 20 0 13 7 20 20 20 13
0 20 -7 20 -20z m-600 -320 c0 -13 -7 -20 -20 -20 -13 0 -20 7 -20 20 0 13 7
20 20 20 13 0 20 -7 20 -20z m-40 -80 c0 -13 -7 -20 -20 -20 -13 0 -20 7 -20
20 0 13 7 20 20 20 13 0 20 -7 20 -20z m240 0 c0 -13 -7 -20 -20 -20 -13 0
-20 7 -20 20 0 13 7 20 20 20 13 0 20 -7 20 -20z m-120 -40 c0 -13 -7 -20 -20
-20 -13 0 -20 7 -20 20 0 13 7 20 20 20 13 0 20 -7 20 -20z m-160 -40 c0 -13
7 -20 20 -20 13 0 20 -7 20 -20 0 -13 -7 -20 -20 -20 -13 0 -20 -7 -20 -20 0
-13 -7 -20 -20 -20 -13 0 -20 -7 -20 -20 0 -13 -7 -20 -20 -20 -17 0 -20 7
-20 40 l0 40 40 0 c33 0 40 3 40 20 0 13 -7 20 -20 20 -13 0 -20 7 -20 20 0
13 7 20 20 20 13 0 20 -7 20 -20z m760 -180 c0 -33 3 -40 20 -40 17 0 20 -7
20 -40 l0 -40 -320 0 -320 0 0 40 0 40 80 0 c73 0 80 -2 80 -20 0 -18 7 -20
80 -20 73 0 80 2 80 20 0 18 7 20 80 20 73 0 80 2 80 20 0 17 7 20 40 20 33 0
40 3 40 20 0 13 7 20 20 20 17 0 20 -7 20 -40z m-440 -180 c0 -13 7 -20 20
-20 13 0 20 -7 20 -20 0 -18 -7 -20 -80 -20 -73 0 -80 2 -80 20 0 13 7 20 20
20 13 0 20 7 20 20 0 17 7 20 40 20 33 0 40 -3 40 -20z m400 0 c0 -13 7 -20
20 -20 13 0 20 -7 20 -20 0 -18 -7 -20 -80 -20 -73 0 -80 2 -80 20 0 13 7 20
20 20 13 0 20 7 20 20 0 17 7 20 40 20 33 0 40 -3 40 -20z m-760 -320 l0 -180
-40 0 c-33 0 -40 -3 -40 -20 0 -13 -7 -20 -20 -20 -13 0 -20 7 -20 20 0 19 -7
20 -260 20 l-260 0 0 180 0 180 320 0 320 0 0 -180z m600 160 c0 -19 7 -20
120 -20 l120 0 0 -60 c0 -53 -2 -60 -20 -60 -13 0 -20 -7 -20 -20 0 -13 -7
-20 -20 -20 -13 0 -20 -7 -20 -20 0 -13 -7 -20 -20 -20 -13 0 -20 -7 -20 -20
0 -13 -7 -20 -20 -20 -13 0 -20 -7 -20 -20 0 -13 7 -20 20 -20 18 0 20 -7 20
-60 l0 -60 -180 0 -180 0 0 40 0 40 40 0 c33 0 40 3 40 20 0 17 -7 20 -40 20
-33 0 -40 3 -40 20 0 13 -7 20 -20 20 -13 0 -20 7 -20 20 0 13 -7 20 -20 20
-17 0 -20 7 -20 40 0 33 -3 40 -20 40 -13 0 -20 7 -20 20 0 13 -7 20 -20 20
-17 0 -20 7 -20 40 l0 40 120 0 c113 0 120 1 120 20 0 18 7 20 80 20 73 0 80
-2 80 -20z m-800 -440 c0 -13 -7 -20 -20 -20 -18 0 -20 -7 -20 -80 0 -73 -2
-80 -20 -80 -18 0 -20 -7 -20 -80 0 -73 -2 -80 -20 -80 -18 0 -20 7 -20 80 0
73 2 80 20 80 18 0 20 7 20 80 0 73 2 80 20 80 13 0 20 7 20 20 0 13 7 20 20
20 13 0 20 -7 20 -20z m1280 -40 c0 -13 7 -20 20 -20 20 0 20 -7 20 -360 0
-353 0 -360 -20 -360 -17 0 -20 7 -20 40 l0 40 -60 0 -60 0 0 -40 0 -40 -500
0 -500 0 0 360 c0 353 0 360 20 360 13 0 20 7 20 20 0 20 7 20 540 20 533 0
540 0 540 -20z m-1400 -420 l0 -80 -40 0 -40 0 0 40 c0 33 3 40 20 40 17 0 20
7 20 40 0 33 3 40 20 40 18 0 20 -7 20 -80z m240 -180 c0 -53 -2 -60 -20 -60
-18 0 -20 7 -20 60 0 53 2 60 20 60 18 0 20 -7 20 -60z m1320 0 c0 -53 -2 -60
-20 -60 -18 0 -20 7 -20 60 0 53 2 60 20 60 18 0 20 -7 20 -60z m-200 -120 c0
-13 -7 -20 -20 -20 -13 0 -20 7 -20 20 0 13 7 20 20 20 13 0 20 -7 20 -20z"/>
<path d="M200 1300 c0 -13 -7 -20 -20 -20 -13 0 -20 -7 -20 -20 0 -13 7 -20
20 -20 13 0 20 -7 20 -20 0 -13 -7 -20 -20 -20 -13 0 -20 -7 -20 -20 0 -13 7
-20 20 -20 13 0 20 -7 20 -20 0 -13 7 -20 20 -20 13 0 20 7 20 20 0 13 7 20
20 20 13 0 20 -7 20 -20 0 -13 7 -20 20 -20 13 0 20 7 20 20 0 13 7 20 20 20
13 0 20 7 20 20 0 13 -7 20 -20 20 -13 0 -20 7 -20 20 0 13 7 20 20 20 13 0
20 7 20 20 0 13 -7 20 -20 20 -13 0 -20 7 -20 20 0 13 -7 20 -20 20 -13 0 -20
-7 -20 -20 0 -13 -7 -20 -20 -20 -13 0 -20 7 -20 20 0 13 -7 20 -20 20 -13 0
-20 -7 -20 -20z m80 -80 c0 -13 -7 -20 -20 -20 -13 0 -20 7 -20 20 0 13 7 20
20 20 13 0 20 -7 20 -20z"/>
<path d="M400 1140 c0 -19 7 -20 100 -20 93 0 100 1 100 20 0 19 -7 20 -100
20 -93 0 -100 -1 -100 -20z"/>
<path d="M1320 1260 c0 -18 -7 -20 -60 -20 -53 0 -60 -2 -60 -20 0 -18 7 -20
60 -20 53 0 60 2 60 20 0 13 7 20 20 20 13 0 20 7 20 20 0 13 -7 20 -20 20
-13 0 -20 -7 -20 -20z"/>
<path d="M1320 1060 c0 -18 -7 -20 -80 -20 -73 0 -80 -2 -80 -20 0 -19 7 -20
100 -20 93 0 100 1 100 20 0 13 7 20 20 20 13 0 20 7 20 20 0 17 -7 20 -40 20
-33 0 -40 -3 -40 -20z"/>
<path d="M720 800 c0 -73 2 -80 20 -80 13 0 20 7 20 20 0 13 7 20 20 20 17 0
20 7 20 40 0 33 3 40 20 40 18 0 20 -7 20 -60 l0 -60 120 0 120 0 0 80 0 80
-180 0 -180 0 0 -80z m320 0 l0 -40 -80 0 -80 0 0 40 0 40 80 0 80 0 0 -40z"/>
<path d="M1480 660 l0 -180 160 0 160 0 0 180 0 180 -160 0 -160 0 0 -180z"/>
<path d="M720 360 l0 -160 160 0 160 0 0 160 0 160 -160 0 -160 0 0 -160z
m120 0 c0 -113 -1 -120 -20 -120 -19 0 -20 7 -20 120 0 113 1 120 20 120 19 0
20 -7 20 -120z m120 -40 c0 -73 -2 -80 -20 -80 -17 0 -20 7 -20 40 0 33 -3 40
-20 40 -13 0 -20 7 -20 20 0 13 7 20 20 20 13 0 20 7 20 20 0 13 7 20 20 20
18 0 20 -7 20 -80z"/>
<path d="M1560 380 c0 -13 -7 -20 -20 -20 -17 0 -20 -7 -20 -40 0 -33 3 -40
20 -40 13 0 20 -7 20 -20 0 -17 7 -20 40 -20 33 0 40 3 40 20 0 17 -7 20 -40
20 -33 0 -40 3 -40 20 0 13 7 20 20 20 13 0 20 7 20 20 0 13 7 20 20 20 13 0
20 -7 20 -20 0 -13 7 -20 20 -20 13 0 20 -7 20 -20 0 -13 7 -20 20 -20 17 0
20 7 20 40 0 33 -3 40 -20 40 -13 0 -20 7 -20 20 0 18 -7 20 -60 20 -53 0 -60
-2 -60 -20z"/>
</g>
</svg>
